<?xml version="1.0" encoding="UTF-8" standalone="no"?><svg xmlns="http://www.w3.org/2000/svg" xmlns:xlink="http://www.w3.org/1999/xlink" contentStyleType="text/css" height="209px" preserveAspectRatio="none" style="width:463px;height:209px;background:#FFFFFF;" version="1.1" viewBox="0 0 463 209" width="463px" zoomAndPan="magnify"><defs/><g><!--MD5=[01d1d3f10adcbcbb014a4902c7c421d3]
entity DCode--><g id="elem_DCode"><rect fill="#FFC0CB" height="42.0679" rx="2.5" ry="2.5" style="stroke:#181818;stroke-width:2.0;" width="78" x="25" y="7"/><polygon fill="#FFC0CB" points="86,12,86,26,98,26,98,18,92,12,86,12" style="stroke:#181818;stroke-width:2.0;"/><line style="stroke:#181818;stroke-width:2.0;" x1="92" x2="92" y1="12" y2="18"/><line style="stroke:#181818;stroke-width:2.0;" x1="98" x2="92" y1="18" y2="18"/><text fill="#000000" font-family="sans-serif" font-size="14" lengthAdjust="spacing" textLength="48" x="35" y="34.9659">D Code</text></g><!--MD5=[f9437ce8db3e76c82f2eb13caf440b0c]
entity JavaCode--><g id="elem_JavaCode"><rect fill="#87CEFA" height="42.0679" rx="2.5" ry="2.5" style="stroke:#181818;stroke-width:2.0;" width="95" x="16.5" y="84"/><polygon fill="#87CEFA" points="94.5,89,94.5,103,106.5,103,106.5,95,100.5,89,94.5,89" style="stroke:#181818;stroke-width:2.0;"/><line style="stroke:#181818;stroke-width:2.0;" x1="100.5" x2="100.5" y1="89" y2="95"/><line style="stroke:#181818;stroke-width:2.0;" x1="106.5" x2="100.5" y1="95" y2="95"/><text fill="#000000" font-family="sans-serif" font-size="14" lengthAdjust="spacing" textLength="65" x="26.5" y="111.9659">Java Code</text></g><!--MD5=[ad4738d350a93c2cd5ccb1a5d333c3c1]
entity PyCode--><g id="elem_PyCode"><rect fill="#98FB98" height="42.0679" rx="2.5" ry="2.5" style="stroke:#181818;stroke-width:2.0;" width="114" x="7" y="161"/><polygon fill="#98FB98" points="104,166,104,180,116,180,116,172,110,166,104,166" style="stroke:#181818;stroke-width:2.0;"/><line style="stroke:#181818;stroke-width:2.0;" x1="110" x2="110" y1="166" y2="172"/><line style="stroke:#181818;stroke-width:2.0;" x1="116" x2="110" y1="172" y2="172"/><text fill="#000000" font-family="sans-serif" font-size="14" lengthAdjust="spacing" textLength="84" x="17" y="188.9659">Python Code</text></g><!--MD5=[fa21e000831c35a4f99beb884d66aa37]
entity OpenAPISpec--><g id="elem_OpenAPISpec"><rect fill="#87CEFA" height="42.0679" rx="2.5" ry="2.5" style="stroke:#181818;stroke-width:2.0;" width="125" x="175" y="84"/><polygon fill="#87CEFA" points="283,89,283,103,295,103,295,95,289,89,283,89" style="stroke:#181818;stroke-width:2.0;"/><line style="stroke:#181818;stroke-width:2.0;" x1="289" x2="289" y1="89" y2="95"/><line style="stroke:#181818;stroke-width:2.0;" x1="295" x2="289" y1="95" y2="95"/><text fill="#000000" font-family="sans-serif" font-size="14" lengthAdjust="spacing" textLength="95" x="185" y="111.9659">OpenAPI Spec</text></g><!--MD5=[79b4c214fd6d7d0611418104447b5881]
entity JSClient--><g id="elem_JSClient"><rect fill="#87CEFA" height="42.0679" rx="2.5" ry="2.5" style="stroke:#181818;stroke-width:2.0;" width="85" x="355" y="7"/><polygon fill="#87CEFA" points="423,12,423,26,435,26,435,18,429,12,423,12" style="stroke:#181818;stroke-width:2.0;"/><line style="stroke:#181818;stroke-width:2.0;" x1="429" x2="429" y1="12" y2="18"/><line style="stroke:#181818;stroke-width:2.0;" x1="435" x2="429" y1="18" y2="18"/><text fill="#000000" font-family="sans-serif" font-size="14" lengthAdjust="spacing" textLength="55" x="365" y="34.9659">JS Client</text></g><!--MD5=[7063d7ae45b201e56669ed043297697f]
entity DartClient--><g id="elem_DartClient"><rect fill="#87CEFA" height="42.0679" rx="2.5" ry="2.5" style="stroke:#181818;stroke-width:2.0;" width="102" x="346.5" y="84"/><polygon fill="#87CEFA" points="431.5,89,431.5,103,443.5,103,443.5,95,437.5,89,431.5,89" style="stroke:#181818;stroke-width:2.0;"/><line style="stroke:#181818;stroke-width:2.0;" x1="437.5" x2="437.5" y1="89" y2="95"/><line style="stroke:#181818;stroke-width:2.0;" x1="443.5" x2="437.5" y1="95" y2="95"/><text fill="#000000" font-family="sans-serif" font-size="14" lengthAdjust="spacing" textLength="72" x="356.5" y="111.9659">Dart Client</text></g><!--MD5=[aa6d8f435be211b1eaa48ba0352e9551]
entity Docs--><g id="elem_Docs"><rect fill="#87CEFA" height="42.0679" rx="2.5" ry="2.5" style="stroke:#181818;stroke-width:2.0;" width="107" x="344" y="161"/><polygon fill="#87CEFA" points="434,166,434,180,446,180,446,172,440,166,434,166" style="stroke:#181818;stroke-width:2.0;"/><line style="stroke:#181818;stroke-width:2.0;" x1="440" x2="440" y1="166" y2="172"/><line style="stroke:#181818;stroke-width:2.0;" x1="446" x2="440" y1="172" y2="172"/><text fill="#000000" font-family="sans-serif" font-size="14" lengthAdjust="spacing" textLength="77" x="354" y="188.9659">Public Docs</text></g><!--MD5=[8e4ae52d0ce6476f8b33490effb6d1a8]
reverse link JavaCode to OpenAPISpec--><g id="link_JavaCode_OpenAPISpec"><path d="M116.95,105 C135.21,105 155.91,105 174.89,105 " fill="none" id="JavaCode-backto-OpenAPISpec" style="stroke:#181818;stroke-width:2.0;stroke-dasharray:7.0,7.0;"/><polygon fill="#181818" points="111.86,105,120.86,109,116.86,105,120.86,101,111.86,105" style="stroke:#181818;stroke-width:2.0;"/><text fill="#000000" font-family="sans-serif" font-size="12" lengthAdjust="spacing" textLength="26" x="135" y="100.8281">uses</text></g><!--MD5=[e61eeb4b9d189dacfe2501b243a4a0a7]
reverse link DCode to OpenAPISpec--><g id="link_DCode_OpenAPISpec"><path d="M107.64,47.14 C132.56,58.33 164.06,72.48 189.68,83.98 " fill="none" id="DCode-backto-OpenAPISpec" style="stroke:#181818;stroke-width:2.0;stroke-dasharray:7.0,7.0;"/><polygon fill="#181818" points="103.06,45.09,109.6364,52.4215,107.6225,47.1353,112.9088,45.1215,103.06,45.09" style="stroke:#181818;stroke-width:2.0;"/><text fill="#000000" font-family="sans-serif" font-size="12" lengthAdjust="spacing" textLength="36" x="130" y="53.8281">uses??</text></g><!--MD5=[299685d49105fa2f6875f4cd5695f26b]
reverse link PyCode to OpenAPISpec--><g id="link_PyCode_OpenAPISpec"><path d="M116.46,158.9 C139.72,148.45 167.01,136.2 189.69,126.02 " fill="none" id="PyCode-backto-OpenAPISpec" style="stroke:#181818;stroke-width:2.0;stroke-dasharray:7.0,7.0;"/><polygon fill="#181818" points="111.86,160.96,121.7088,160.94,116.4249,158.92,118.4449,153.6361,111.86,160.96" style="stroke:#181818;stroke-width:2.0;"/><text fill="#000000" font-family="sans-serif" font-size="12" lengthAdjust="spacing" textLength="36" x="130" y="132.8281">uses??</text></g><!--MD5=[34c643e32b2b431d9ac9b662cef90ea2]
reverse link OpenAPISpec to JSClient--><g id="link_OpenAPISpec_JSClient"><path d="M286.27,81.72 C308.09,71.09 333.7,58.6 354.74,48.35 " fill="none" id="OpenAPISpec-backto-JSClient" style="stroke:#181818;stroke-width:2.0;stroke-dasharray:7.0,7.0;"/><polygon fill="#181818" points="281.67,83.96,291.5118,83.5883,286.1592,81.7583,287.9891,76.4056,281.67,83.96" style="stroke:#181818;stroke-width:2.0;"/><text fill="#000000" font-family="sans-serif" font-size="12" lengthAdjust="spacing" textLength="26" x="309" y="55.8281">uses</text></g><!--MD5=[6d2db52fd619c99008d42b9675c5c019]
reverse link OpenAPISpec to DartClient--><g id="link_OpenAPISpec_DartClient"><path d="M305.07,105 C318.81,105 333.06,105 346.1,105 " fill="none" id="OpenAPISpec-backto-DartClient" style="stroke:#181818;stroke-width:2.0;stroke-dasharray:7.0,7.0;"/><polygon fill="#181818" points="300.04,105,309.04,109,305.04,105,309.04,101,300.04,105" style="stroke:#181818;stroke-width:2.0;"/><text fill="#000000" font-family="sans-serif" font-size="12" lengthAdjust="spacing" textLength="26" x="309" y="100.8281">uses</text></g><!--MD5=[dff4ecfe24b9abe0c449f4643e5182ad]
reverse link OpenAPISpec to Docs--><g id="link_OpenAPISpec_Docs"><path d="M286.18,128.23 C307.55,138.65 332.57,150.84 353.38,160.98 " fill="none" id="OpenAPISpec-backto-Docs" style="stroke:#181818;stroke-width:2.0;stroke-dasharray:7.0,7.0;"/><polygon fill="#181818" points="281.67,126.04,287.9891,133.5944,286.1592,128.2417,291.5118,126.4117,281.67,126.04" style="stroke:#181818;stroke-width:2.0;"/><text fill="#000000" font-family="sans-serif" font-size="12" lengthAdjust="spacing" textLength="26" x="309" y="134.8281">uses</text></g><!--MD5=[459d36fce4eac663f9627810f632cecd]
@startuml
left to right direction
skinparam ranksep 10
skinparam Arrow {
  Thickness 2
  FontSize 12
}
skinparam Artifact {
  BorderThickness 2
  FontSize 14
}

artifact "D Code" as DCode #Pink
artifact "Java Code" as JavaCode #LightSkyBlue
artifact "Python Code" as PyCode #PaleGreen
artifact "OpenAPI Spec" as OpenAPISpec #LightSkyBlue
artifact "JS Client" as JSClient #LightSkyBlue
artifact "Dart Client" as DartClient #LightSkyBlue
artifact "Public Docs" as Docs #LightSkyBlue

JavaCode <.. OpenAPISpec : uses
DCode <.. OpenAPISpec : uses??
PyCode <.. OpenAPISpec : uses??
OpenAPISpec <.. JSClient : uses
OpenAPISpec <.. DartClient : uses
OpenAPISpec <.. Docs : uses
@enduml

PlantUML version 1.2022.8(Sun Sep 25 11:00:33 CEST 2022)
(GPL source distribution)
Java Runtime: OpenJDK Runtime Environment
JVM: OpenJDK 64-Bit Server VM
Default Encoding: UTF-8
Language: en
Country: US
--></g></svg>