<?xml version="1.0" encoding="UTF-8" standalone="no"?><svg xmlns="http://www.w3.org/2000/svg" xmlns:xlink="http://www.w3.org/1999/xlink" contentStyleType="text/css" height="209px" preserveAspectRatio="none" style="width:434px;height:209px;background:#FFFFFF;" version="1.1" viewBox="0 0 434 209" width="434px" zoomAndPan="magnify"><defs/><g><!--MD5=[9c442af377b6b7b7a3f508cc1fb70c5e]
entity Code--><g id="elem_Code"><rect fill="#F1F1F1" height="42.0679" rx="2.5" ry="2.5" style="stroke:#181818;stroke-width:2.0;" width="95" x="7" y="84"/><polygon fill="#F1F1F1" points="85,89,85,103,97,103,97,95,91,89,85,89" style="stroke:#181818;stroke-width:2.0;"/><line style="stroke:#181818;stroke-width:2.0;" x1="91" x2="91" y1="89" y2="95"/><line style="stroke:#181818;stroke-width:2.0;" x1="97" x2="91" y1="95" y2="95"/><text fill="#000000" font-family="sans-serif" font-size="14" lengthAdjust="spacing" textLength="65" x="17" y="111.9659">Java Code</text></g><!--MD5=[fa21e000831c35a4f99beb884d66aa37]
entity OpenAPISpec--><g id="elem_OpenAPISpec"><rect fill="#F1F1F1" height="42.0679" rx="2.5" ry="2.5" style="stroke:#181818;stroke-width:2.0;" width="125" x="146" y="84"/><polygon fill="#F1F1F1" points="254,89,254,103,266,103,266,95,260,89,254,89" style="stroke:#181818;stroke-width:2.0;"/><line style="stroke:#181818;stroke-width:2.0;" x1="260" x2="260" y1="89" y2="95"/><line style="stroke:#181818;stroke-width:2.0;" x1="266" x2="260" y1="95" y2="95"/><text fill="#000000" font-family="sans-serif" font-size="14" lengthAdjust="spacing" textLength="95" x="156" y="111.9659">OpenAPI Spec</text></g><!--MD5=[79b4c214fd6d7d0611418104447b5881]
entity JSClient--><g id="elem_JSClient"><rect fill="#F1F1F1" height="42.0679" rx="2.5" ry="2.5" style="stroke:#181818;stroke-width:2.0;" width="85" x="326" y="7"/><polygon fill="#F1F1F1" points="394,12,394,26,406,26,406,18,400,12,394,12" style="stroke:#181818;stroke-width:2.0;"/><line style="stroke:#181818;stroke-width:2.0;" x1="400" x2="400" y1="12" y2="18"/><line style="stroke:#181818;stroke-width:2.0;" x1="406" x2="400" y1="18" y2="18"/><text fill="#000000" font-family="sans-serif" font-size="14" lengthAdjust="spacing" textLength="55" x="336" y="34.9659">JS Client</text></g><!--MD5=[7063d7ae45b201e56669ed043297697f]
entity DartClient--><g id="elem_DartClient"><rect fill="#F1F1F1" height="42.0679" rx="2.5" ry="2.5" style="stroke:#181818;stroke-width:2.0;" width="102" x="317.5" y="84"/><polygon fill="#F1F1F1" points="402.5,89,402.5,103,414.5,103,414.5,95,408.5,89,402.5,89" style="stroke:#181818;stroke-width:2.0;"/><line style="stroke:#181818;stroke-width:2.0;" x1="408.5" x2="408.5" y1="89" y2="95"/><line style="stroke:#181818;stroke-width:2.0;" x1="414.5" x2="408.5" y1="95" y2="95"/><text fill="#000000" font-family="sans-serif" font-size="14" lengthAdjust="spacing" textLength="72" x="327.5" y="111.9659">Dart Client</text></g><!--MD5=[aa6d8f435be211b1eaa48ba0352e9551]
entity Docs--><g id="elem_Docs"><rect fill="#F1F1F1" height="42.0679" rx="2.5" ry="2.5" style="stroke:#181818;stroke-width:2.0;" width="107" x="315" y="161"/><polygon fill="#F1F1F1" points="405,166,405,180,417,180,417,172,411,166,405,166" style="stroke:#181818;stroke-width:2.0;"/><line style="stroke:#181818;stroke-width:2.0;" x1="411" x2="411" y1="166" y2="172"/><line style="stroke:#181818;stroke-width:2.0;" x1="417" x2="411" y1="172" y2="172"/><text fill="#000000" font-family="sans-serif" font-size="14" lengthAdjust="spacing" textLength="77" x="325" y="188.9659">Public Docs</text></g><!--MD5=[bfd773cd879fab82ca707f3df98492fc]
reverse link Code to OpenAPISpec--><g id="link_Code_OpenAPISpec"><path d="M107.58,105 C119.94,105 133.24,105 145.97,105 " fill="none" id="Code-backto-OpenAPISpec" style="stroke:#181818;stroke-width:2.0;stroke-dasharray:7.0,7.0;"/><polygon fill="#181818" points="102.35,105,111.35,109,107.35,105,111.35,101,102.35,105" style="stroke:#181818;stroke-width:2.0;"/><text fill="#000000" font-family="sans-serif" font-size="12" lengthAdjust="spacing" textLength="26" x="111" y="100.8281">uses</text></g><!--MD5=[34c643e32b2b431d9ac9b662cef90ea2]
reverse link OpenAPISpec to JSClient--><g id="link_OpenAPISpec_JSClient"><path d="M257.27,81.72 C279.09,71.09 304.7,58.6 325.74,48.35 " fill="none" id="OpenAPISpec-backto-JSClient" style="stroke:#181818;stroke-width:2.0;stroke-dasharray:7.0,7.0;"/><polygon fill="#181818" points="252.67,83.96,262.5118,83.5883,257.1592,81.7583,258.9891,76.4056,252.67,83.96" style="stroke:#181818;stroke-width:2.0;"/><text fill="#000000" font-family="sans-serif" font-size="12" lengthAdjust="spacing" textLength="26" x="280" y="55.8281">uses</text></g><!--MD5=[6d2db52fd619c99008d42b9675c5c019]
reverse link OpenAPISpec to DartClient--><g id="link_OpenAPISpec_DartClient"><path d="M276.07,105 C289.81,105 304.06,105 317.1,105 " fill="none" id="OpenAPISpec-backto-DartClient" style="stroke:#181818;stroke-width:2.0;stroke-dasharray:7.0,7.0;"/><polygon fill="#181818" points="271.04,105,280.04,109,276.04,105,280.04,101,271.04,105" style="stroke:#181818;stroke-width:2.0;"/><text fill="#000000" font-family="sans-serif" font-size="12" lengthAdjust="spacing" textLength="26" x="280" y="100.8281">uses</text></g><!--MD5=[dff4ecfe24b9abe0c449f4643e5182ad]
reverse link OpenAPISpec to Docs--><g id="link_OpenAPISpec_Docs"><path d="M257.18,128.23 C278.55,138.65 303.57,150.84 324.38,160.98 " fill="none" id="OpenAPISpec-backto-Docs" style="stroke:#181818;stroke-width:2.0;stroke-dasharray:7.0,7.0;"/><polygon fill="#181818" points="252.67,126.04,258.9891,133.5944,257.1592,128.2417,262.5118,126.4117,252.67,126.04" style="stroke:#181818;stroke-width:2.0;"/><text fill="#000000" font-family="sans-serif" font-size="12" lengthAdjust="spacing" textLength="26" x="280" y="134.8281">uses</text></g><!--MD5=[0e639a3c325882817b90d8e6cdfcd600]
@startuml
left to right direction
skinparam ranksep 10
skinparam Arrow {
  Thickness 2
  FontSize 12
}
skinparam Artifact {
  BorderThickness 2
  FontSize 14
}

artifact "Java Code" as Code
artifact "OpenAPI Spec" as OpenAPISpec
artifact "JS Client" as JSClient
artifact "Dart Client" as DartClient
artifact "Public Docs" as Docs

Code <.. OpenAPISpec : uses
OpenAPISpec <.. JSClient : uses
OpenAPISpec <.. DartClient : uses
OpenAPISpec <.. Docs : uses
@enduml

PlantUML version 1.2022.8(Sun Sep 25 11:00:33 CEST 2022)
(GPL source distribution)
Java Runtime: OpenJDK Runtime Environment
JVM: OpenJDK 64-Bit Server VM
Default Encoding: UTF-8
Language: en
Country: US
--></g></svg>